<?xml version="1.0" encoding="utf-8"?>
<!-- Generator: Adobe Illustrator 20.1.0, SVG Export Plug-In . SVG Version: 6.00 Build 0)  -->
<svg version="1.1" id="Layer_1" xmlns="http://www.w3.org/2000/svg" xmlns:xlink="http://www.w3.org/1999/xlink" x="0px" y="0px"
	 viewBox="0 0 600 600" style="enable-background:new 0 0 600 600;" xml:space="preserve">
<style type="text/css">
	.st0{fill:none;stroke:#8CAE68;stroke-width:16;stroke-miterlimit:10;}
	.st1{fill:#60992D;}
</style>
<circle class="st0" cx="300" cy="300" r="281.2"/>
<g>
	<path class="st1" d="M106.9,410.8c1.9-13.4,2.8-33.4,2.8-60c0-53.1-2.4-91.8-7.1-116.4c-4.7-24.5-12.3-36.8-22.7-36.8
		c-6.7,0-13.2,3.5-19.4,10.5c-6.2,7-10.1,15.2-11.7,24.4c-4.6-1-6.9-3-6.9-6c0-11.4,5.5-23.2,16.5-35.5c11-12.3,21.6-18.5,31.7-18.5
		c10.3,0,18.1,3.9,23.4,11.8c5.3,7.9,9.9,22.3,13.8,43.4c5.9,31.3,8.9,67.4,8.9,108.3l0.2,11.7l24-46.8l10.7-20.6l15.5-30.6
		c8.9-17.4,14.8-31.3,17.8-41.8l25.6-24.4c-0.8,8.5-1.2,15.7-1.2,21.7c0,19,3.8,49.2,11.4,90.8l2,10.9l3.3,17.4
		c2.2,11.9,4.5,24.9,6.7,38.8c3.3-6.2,5.3-10.1,6.1-11.9l13.5-28.1l16.4-33.3c13.6-28.2,20.4-50.2,20.4-66
		c0-10.7-4.4-18.8-13.2-24.4l24.6-26.9c11.4,7.5,17.1,16.4,17.1,26.9c0,13.9-11.7,43.9-35.2,90c-3.9,7.7-8.6,17.1-14.1,28.1
		l-7.2,14.7l-7.4,16.9l-9.7,21.7c-0.8,1.9-2.6,6.4-5.4,13.4l-25.6,27.3l-0.7-7.4c-2.2-23.4-6.4-51.1-12.5-83.1l-2-10l-2.8-14.9
		c-2.1-10.8-3.5-18.7-4.2-23.7l-3.2-22.9c-0.2-1.7-0.8-5.6-1.7-11.7l-22.5,44.8l-9.2,18.2c-16.8,33-29.7,60.5-38.6,82.4L106.9,410.8
		z"/>
	<path class="st1" d="M357.7,274.9l-26.3,25.2c-4.6-11.9-6.9-23.5-6.9-34.6c0-27.6,12-49.9,35.9-66.9c20.1-14.3,54.4-21.4,103-21.4
		c8.2,0,15.5,0.2,21.7,0.5c17.3,1.1,26.1,1.7,26.6,1.7h11.7c-8.7,13.6-13,41.1-13,82.5l0.2,8.7l0.7,19.2c0,23.1,2.8,46.7,8.5,70.8
		c2.2,9.4,4.4,15.4,6.5,18c2.1,2.7,5.8,4,11,4c5.7,0,12.1-1.8,19.4-5.5c0.8,1.9,1.2,3.5,1.2,4.7c0,2.8-2.2,5.2-6.5,7.2l-7.9,3.8
		l-41.1,17.9c-9.1-28.2-14.7-57.7-16.6-88.6l-12.7,8.9h-56.2c-10.3,26.1-24.3,44.7-42.1,55.8l34.6,1.7l-18.1,19.1l-66.7-2.3
		l22.2-20.1l16.7,1c7.6-5.6,14-13.4,19.4-23.5c5.4-10.1,13.3-29.6,23.9-58.6l5-13.9c10.3-28,20-48.3,29.3-61.1
		c9.3-12.8,21.8-23.2,37.8-31.5c-17.5-3.2-35.9-4.8-55.3-4.8c-49.4,0-74.1,16.7-74.1,50C349.7,254.3,352.3,264.9,357.7,274.9z
		 M485.6,313c-1.6-19.4-2.3-35.1-2.3-47.1c0-6.1,0.1-11.1,0.3-15l1.3-19.4c0.9-13.2,2.1-23.4,3.7-30.4
		c-21.8,13.4-39.8,40.6-53.8,81.8c-4,11.9-6.4,18.8-7,20.5l-3.8,9.5H485.6z"/>
</g>
</svg>
